<svg width="54" height="54" viewBox="0 0 54 54" fill="none" xmlns="http://www.w3.org/2000/svg">
<path d="M27 43.2C21.375 43.2 16.4025 40.32 13.5 36C13.5675 31.5 22.5 29.025 27 29.025C31.5 29.025 40.4325 31.5 40.5 36C39.0125 38.2149 37.0032 40.0301 34.649 41.2857C32.2948 42.5412 29.6681 43.1986 27 43.2ZM27 11.25C28.7902 11.25 30.5071 11.9612 31.773 13.227C33.0388 14.4929 33.75 16.2098 33.75 18C33.75 19.7902 33.0388 21.5071 31.773 22.773C30.5071 24.0388 28.7902 24.75 27 24.75C25.2098 24.75 23.4929 24.0388 22.227 22.773C20.9612 21.5071 20.25 19.7902 20.25 18C20.25 16.2098 20.9612 14.4929 22.227 13.227C23.4929 11.9612 25.2098 11.25 27 11.25ZM27 4.5C24.0453 4.5 21.1194 5.08198 18.3896 6.21271C15.6598 7.34344 13.1794 9.00078 11.0901 11.0901C6.87053 15.3097 4.5 21.0326 4.5 27C4.5 32.9674 6.87053 38.6903 11.0901 42.9099C13.1794 44.9992 15.6598 46.6566 18.3896 47.7873C21.1194 48.918 24.0453 49.5 27 49.5C32.9674 49.5 38.6903 47.1295 42.9099 42.9099C47.1295 38.6903 49.5 32.9674 49.5 27C49.5 14.5575 39.375 4.5 27 4.5Z" fill="#B99B6C"/>
</svg>
