<svg width="40" height="40" viewBox="0 0 40 40" fill="none" xmlns="http://www.w3.org/2000/svg">
<path d="M16.6666 24.9997L25.3166 19.9997L16.6666 14.9997V24.9997ZM35.9333 11.9497C36.15 12.733 36.3 13.783 36.4 15.1163C36.5166 16.4497 36.5666 17.5997 36.5666 18.5997L36.6666 19.9997C36.6666 23.6497 36.4 26.333 35.9333 28.0497C35.5166 29.5497 34.55 30.5163 33.05 30.933C32.2666 31.1497 30.8333 31.2997 28.6333 31.3997C26.4666 31.5163 24.4833 31.5663 22.65 31.5663L20 31.6663C13.0166 31.6663 8.66665 31.3997 6.94998 30.933C5.44998 30.5163 4.48331 29.5497 4.06665 28.0497C3.84998 27.2663 3.69998 26.2163 3.59998 24.883C3.48331 23.5497 3.43331 22.3997 3.43331 21.3997L3.33331 19.9997C3.33331 16.3497 3.59998 13.6663 4.06665 11.9497C4.48331 10.4497 5.44998 9.48301 6.94998 9.06634C7.73331 8.84967 9.16665 8.69967 11.3666 8.59967C13.5333 8.48301 15.5166 8.43301 17.35 8.43301L20 8.33301C26.9833 8.33301 31.3333 8.59967 33.05 9.06634C34.55 9.48301 35.5166 10.4497 35.9333 11.9497Z" fill="black"/>
</svg>
