<svg width="40" height="40" viewBox="0 0 40 40" fill="none" xmlns="http://www.w3.org/2000/svg">
<path d="M37.4333 10.0003C36.15 10.5837 34.7667 10.967 33.3333 11.1503C34.8 10.267 35.9333 8.86699 36.4667 7.18366C35.0833 8.01699 33.55 8.60033 31.9333 8.93366C30.6166 7.50033 28.7667 6.66699 26.6667 6.66699C22.75 6.66699 19.55 9.86699 19.55 13.817C19.55 14.3837 19.6167 14.9337 19.7333 15.4503C13.8 15.1503 8.51665 12.3003 4.99998 7.98366C4.38332 9.03366 4.03332 10.267 4.03332 11.567C4.03332 14.0503 5.28332 16.2503 7.21665 17.5003C6.03332 17.5003 4.93332 17.167 3.96665 16.667V16.717C3.96665 20.1837 6.43332 23.0837 9.69998 23.7337C8.6512 24.0207 7.55014 24.0606 6.48332 23.8503C6.936 25.2711 7.82255 26.5143 9.01834 27.4052C10.2141 28.2961 11.6591 28.7898 13.15 28.817C10.6227 30.8177 7.48998 31.8992 4.26665 31.8837C3.69998 31.8837 3.13332 31.8503 2.56665 31.7837C5.73332 33.817 9.49998 35.0003 13.5333 35.0003C26.6667 35.0003 33.8833 24.1003 33.8833 14.6503C33.8833 14.3337 33.8833 14.0337 33.8666 13.717C35.2667 12.717 36.4666 11.4503 37.4333 10.0003Z" fill="black"/>
</svg>
