<svg width="135" height="43" viewBox="0 0 135 43" fill="none" xmlns="http://www.w3.org/2000/svg">
<path d="M95.8076 13.24C96.4583 13.3787 96.981 13.704 97.3756 14.216C97.7703 14.7173 97.9676 15.2933 97.9676 15.944C97.9676 16.8827 97.637 17.6293 96.9756 18.184C96.325 18.728 95.413 19 94.2396 19H89.0076V7.768H94.0636C95.205 7.768 96.0956 8.02933 96.7356 8.552C97.3863 9.07467 97.7116 9.784 97.7116 10.68C97.7116 11.3413 97.5356 11.8907 97.1836 12.328C96.8423 12.7653 96.3836 13.0693 95.8076 13.24ZM91.7436 12.312H93.5356C93.9836 12.312 94.325 12.216 94.5596 12.024C94.805 11.8213 94.9276 11.528 94.9276 11.144C94.9276 10.76 94.805 10.4667 94.5596 10.264C94.325 10.0613 93.9836 9.96 93.5356 9.96H91.7436V12.312ZM93.7596 16.792C94.2183 16.792 94.5703 16.6907 94.8156 16.488C95.0716 16.2747 95.1996 15.9707 95.1996 15.576C95.1996 15.1813 95.0663 14.872 94.7996 14.648C94.5436 14.424 94.1863 14.312 93.7276 14.312H91.7436V16.792H93.7596ZM107.97 14.392C107.97 14.648 107.955 14.9147 107.923 15.192H101.731C101.773 15.7467 101.949 16.1733 102.259 16.472C102.579 16.76 102.968 16.904 103.427 16.904C104.109 16.904 104.584 16.616 104.851 16.04H107.763C107.613 16.6267 107.341 17.1547 106.947 17.624C106.563 18.0933 106.077 18.4613 105.491 18.728C104.904 18.9947 104.248 19.128 103.523 19.128C102.648 19.128 101.869 18.9413 101.187 18.568C100.504 18.1947 99.9705 17.6613 99.5865 16.968C99.2025 16.2747 99.0105 15.464 99.0105 14.536C99.0105 13.608 99.1972 12.7973 99.5705 12.104C99.9545 11.4107 100.488 10.8773 101.171 10.504C101.853 10.1307 102.637 9.944 103.523 9.944C104.387 9.944 105.155 10.1253 105.827 10.488C106.499 10.8507 107.021 11.368 107.395 12.04C107.779 12.712 107.97 13.496 107.97 14.392ZM105.171 13.672C105.171 13.2027 105.011 12.8293 104.691 12.552C104.371 12.2747 103.971 12.136 103.491 12.136C103.032 12.136 102.643 12.2693 102.323 12.536C102.013 12.8027 101.821 13.1813 101.747 13.672H105.171ZM112.15 11.56C112.47 11.0693 112.87 10.6853 113.35 10.408C113.83 10.12 114.363 9.976 114.95 9.976V12.872H114.198C113.515 12.872 113.003 13.0213 112.662 13.32C112.321 13.608 112.15 14.12 112.15 14.856V19H109.414V10.072H112.15V11.56ZM117.634 9.144C117.154 9.144 116.759 9.00533 116.45 8.728C116.151 8.44 116.002 8.088 116.002 7.672C116.002 7.24533 116.151 6.89333 116.45 6.616C116.759 6.328 117.154 6.184 117.634 6.184C118.103 6.184 118.487 6.328 118.786 6.616C119.095 6.89333 119.25 7.24533 119.25 7.672C119.25 8.088 119.095 8.44 118.786 8.728C118.487 9.00533 118.103 9.144 117.634 9.144ZM118.994 10.072V19H116.258V10.072H118.994Z" fill="#B99B6C"/>
<path d="M81.917 28.24C82.5677 28.3787 83.0903 28.704 83.485 29.216C83.8797 29.7173 84.077 30.2933 84.077 30.944C84.077 31.8827 83.7463 32.6293 83.085 33.184C82.4343 33.728 81.5223 34 80.349 34H75.117V22.768H80.173C81.3143 22.768 82.205 23.0293 82.845 23.552C83.4957 24.0747 83.821 24.784 83.821 25.68C83.821 26.3413 83.645 26.8907 83.293 27.328C82.9517 27.7653 82.493 28.0693 81.917 28.24ZM77.853 27.312H79.645C80.093 27.312 80.4343 27.216 80.669 27.024C80.9143 26.8213 81.037 26.528 81.037 26.144C81.037 25.76 80.9143 25.4667 80.669 25.264C80.4343 25.0613 80.093 24.96 79.645 24.96H77.853V27.312ZM79.869 31.792C80.3277 31.792 80.6797 31.6907 80.925 31.488C81.181 31.2747 81.309 30.9707 81.309 30.576C81.309 30.1813 81.1757 29.872 80.909 29.648C80.653 29.424 80.2957 29.312 79.837 29.312H77.853V31.792H79.869ZM85.1199 29.52C85.1199 28.6027 85.2905 27.7973 85.6319 27.104C85.9839 26.4107 86.4585 25.8773 87.0559 25.504C87.6532 25.1307 88.3199 24.944 89.0559 24.944C89.6852 24.944 90.2345 25.072 90.7039 25.328C91.1839 25.584 91.5519 25.92 91.8079 26.336V25.072H94.5439V34H91.8079V32.736C91.5412 33.152 91.1679 33.488 90.6879 33.744C90.2185 34 89.6692 34.128 89.0399 34.128C88.3145 34.128 87.6532 33.9413 87.0559 33.568C86.4585 33.184 85.9839 32.6453 85.6319 31.952C85.2905 31.248 85.1199 30.4373 85.1199 29.52ZM91.8079 29.536C91.8079 28.8533 91.6159 28.3147 91.2319 27.92C90.8585 27.5253 90.3999 27.328 89.8559 27.328C89.3119 27.328 88.8479 27.5253 88.4639 27.92C88.0905 28.304 87.9039 28.8373 87.9039 29.52C87.9039 30.2027 88.0905 30.7467 88.4639 31.152C88.8479 31.5467 89.3119 31.744 89.8559 31.744C90.3999 31.744 90.8585 31.5467 91.2319 31.152C91.6159 30.7573 91.8079 30.2187 91.8079 29.536ZM99.2593 26.56C99.5793 26.0693 99.9793 25.6853 100.459 25.408C100.939 25.12 101.473 24.976 102.059 24.976V27.872H101.307C100.625 27.872 100.113 28.0213 99.7713 28.32C99.4299 28.608 99.2593 29.12 99.2593 29.856V34H96.5233V25.072H99.2593V26.56ZM102.823 29.52C102.823 28.6027 102.994 27.7973 103.335 27.104C103.687 26.4107 104.162 25.8773 104.759 25.504C105.356 25.1307 106.023 24.944 106.759 24.944C107.388 24.944 107.938 25.072 108.407 25.328C108.887 25.584 109.255 25.92 109.511 26.336V25.072H112.247V34H109.511V32.736C109.244 33.152 108.871 33.488 108.391 33.744C107.922 34 107.372 34.128 106.743 34.128C106.018 34.128 105.356 33.9413 104.759 33.568C104.162 33.184 103.687 32.6453 103.335 31.952C102.994 31.248 102.823 30.4373 102.823 29.52ZM109.511 29.536C109.511 28.8533 109.319 28.3147 108.935 27.92C108.562 27.5253 108.103 27.328 107.559 27.328C107.015 27.328 106.551 27.5253 106.167 27.92C105.794 28.304 105.607 28.8373 105.607 29.52C105.607 30.2027 105.794 30.7467 106.167 31.152C106.551 31.5467 107.015 31.744 107.559 31.744C108.103 31.744 108.562 31.5467 108.935 31.152C109.319 30.7573 109.511 30.2187 109.511 29.536ZM119.666 24.976C120.712 24.976 121.544 25.3173 122.162 26C122.792 26.672 123.106 27.6 123.106 28.784V34H120.386V29.152C120.386 28.5547 120.232 28.0907 119.922 27.76C119.613 27.4293 119.197 27.264 118.674 27.264C118.152 27.264 117.736 27.4293 117.426 27.76C117.117 28.0907 116.962 28.5547 116.962 29.152V34H114.226V25.072H116.962V26.256C117.24 25.8613 117.613 25.552 118.082 25.328C118.552 25.0933 119.08 24.976 119.666 24.976ZM128.4 24.944C129.029 24.944 129.578 25.072 130.048 25.328C130.528 25.584 130.896 25.92 131.152 26.336V25.072H133.888V33.984C133.888 34.8053 133.722 35.5467 133.392 36.208C133.072 36.88 132.576 37.4133 131.904 37.808C131.242 38.2027 130.416 38.4 129.424 38.4C128.101 38.4 127.029 38.0853 126.208 37.456C125.386 36.8373 124.917 35.9947 124.8 34.928H127.504C127.589 35.2693 127.792 35.536 128.112 35.728C128.432 35.9307 128.826 36.032 129.296 36.032C129.861 36.032 130.309 35.8667 130.64 35.536C130.981 35.216 131.152 34.6987 131.152 33.984V32.72C130.885 33.136 130.517 33.4773 130.048 33.744C129.578 34 129.029 34.128 128.4 34.128C127.664 34.128 126.997 33.9413 126.4 33.568C125.802 33.184 125.328 32.6453 124.976 31.952C124.634 31.248 124.464 30.4373 124.464 29.52C124.464 28.6027 124.634 27.7973 124.976 27.104C125.328 26.4107 125.802 25.8773 126.4 25.504C126.997 25.1307 127.664 24.944 128.4 24.944ZM131.152 29.536C131.152 28.8533 130.96 28.3147 130.576 27.92C130.202 27.5253 129.744 27.328 129.2 27.328C128.656 27.328 128.192 27.5253 127.808 27.92C127.434 28.304 127.248 28.8373 127.248 29.52C127.248 30.2027 127.434 30.7467 127.808 31.152C128.192 31.5467 128.656 31.744 129.2 31.744C129.744 31.744 130.202 31.5467 130.576 31.152C130.96 30.7573 131.152 30.2187 131.152 29.536Z" fill="#B99B6C"/>
<path d="M32 36.7941V38.3064L19.8095 42.0871L9.14286 39.2138V41.331H0V24.6958H12.1905L21.6381 28.1741C23.1619 28.779 24.381 30.4425 24.381 32.2572H27.4286C30.019 32.2572 32 34.2232 32 36.7941ZM6.09524 38.3064V27.7204H3.04762V38.3064H6.09524ZM28.8 36.1892C28.4952 35.5843 28.0381 35.2818 27.4286 35.2818H19.2C18.4381 35.2818 17.5238 35.1306 16.7619 34.9794L13.2571 33.7695L14.1714 30.8962L17.8286 32.106C18.2857 32.106 21.3333 32.2572 21.3333 32.2572C21.3333 31.6523 21.0286 31.1986 20.419 31.0474L11.581 27.7204H9.14286V36.038L19.8095 38.9113L28.8 36.1892Z" fill="#B99B6C"/>
<path d="M32 36.7941V38.3064L44.1905 42.0871L54.8571 39.2138V41.331H64V24.6958H51.8095L42.3619 28.1741C40.8381 28.779 39.619 30.4425 39.619 32.2572H36.5714C33.981 32.2572 32 34.2232 32 36.7941ZM57.9048 38.3064V27.7204H60.9524V38.3064H57.9048ZM35.2 36.1892C35.5048 35.5843 35.9619 35.2818 36.5714 35.2818H44.8C45.5619 35.2818 46.4762 35.1306 47.2381 34.9794L50.7429 33.7695L49.8286 30.8962L46.1714 32.106C45.7143 32.106 42.6667 32.2572 42.6667 32.2572C42.6667 31.6523 42.9714 31.1986 43.581 31.0474L52.419 27.7204H54.8571V36.038L44.1905 38.9113L35.2 36.1892Z" fill="#B99B6C"/>
<path d="M32 0L17.0623 6.77117L23.8394 9.84295L38.1019 2.76378L32 0ZM39.8559 3.55863L25.5934 10.6378L32 13.544L46.9377 6.77117L39.8559 3.55863ZM16 7.92206V22.9912L31.2589 29.913V14.8439L16 7.92206ZM48 7.92206L32.7411 14.8439V29.913L48 22.9912V7.92206Z" fill="#B99B6C"/>
</svg>
