<svg width="64" height="88" viewBox="0 0 64 88" fill="none" xmlns="http://www.w3.org/2000/svg">
<path d="M23.8076 61.24C24.4583 61.3787 24.981 61.704 25.3756 62.216C25.7703 62.7173 25.9676 63.2933 25.9676 63.944C25.9676 64.8827 25.637 65.6293 24.9756 66.184C24.325 66.728 23.413 67 22.2396 67H17.0076V55.768H22.0636C23.205 55.768 24.0956 56.0293 24.7356 56.552C25.3863 57.0747 25.7116 57.784 25.7116 58.68C25.7116 59.3413 25.5356 59.8907 25.1836 60.328C24.8423 60.7653 24.3836 61.0693 23.8076 61.24ZM19.7436 60.312H21.5356C21.9836 60.312 22.325 60.216 22.5596 60.024C22.805 59.8213 22.9276 59.528 22.9276 59.144C22.9276 58.76 22.805 58.4667 22.5596 58.264C22.325 58.0613 21.9836 57.96 21.5356 57.96H19.7436V60.312ZM21.7596 64.792C22.2183 64.792 22.5703 64.6907 22.8156 64.488C23.0716 64.2747 23.1996 63.9707 23.1996 63.576C23.1996 63.1813 23.0663 62.872 22.7996 62.648C22.5436 62.424 22.1863 62.312 21.7276 62.312H19.7436V64.792H21.7596ZM35.9705 62.392C35.9705 62.648 35.9545 62.9147 35.9225 63.192H29.7305C29.7732 63.7467 29.9492 64.1733 30.2585 64.472C30.5785 64.76 30.9678 64.904 31.4265 64.904C32.1092 64.904 32.5838 64.616 32.8505 64.04H35.7625C35.6132 64.6267 35.3412 65.1547 34.9465 65.624C34.5625 66.0933 34.0772 66.4613 33.4905 66.728C32.9038 66.9947 32.2478 67.128 31.5225 67.128C30.6478 67.128 29.8692 66.9413 29.1865 66.568C28.5038 66.1947 27.9705 65.6613 27.5865 64.968C27.2025 64.2747 27.0105 63.464 27.0105 62.536C27.0105 61.608 27.1972 60.7973 27.5705 60.104C27.9545 59.4107 28.4878 58.8773 29.1705 58.504C29.8532 58.1307 30.6372 57.944 31.5225 57.944C32.3865 57.944 33.1545 58.1253 33.8265 58.488C34.4985 58.8507 35.0212 59.368 35.3945 60.04C35.7785 60.712 35.9705 61.496 35.9705 62.392ZM33.1705 61.672C33.1705 61.2027 33.0105 60.8293 32.6905 60.552C32.3705 60.2747 31.9705 60.136 31.4905 60.136C31.0318 60.136 30.6425 60.2693 30.3225 60.536C30.0132 60.8027 29.8212 61.1813 29.7465 61.672H33.1705ZM40.1499 59.56C40.4699 59.0693 40.8699 58.6853 41.3499 58.408C41.8299 58.12 42.3632 57.976 42.9499 57.976V60.872H42.1979C41.5152 60.872 41.0032 61.0213 40.6619 61.32C40.3205 61.608 40.1499 62.12 40.1499 62.856V67H37.4139V58.072H40.1499V59.56ZM45.6336 57.144C45.1536 57.144 44.759 57.0053 44.4496 56.728C44.151 56.44 44.0016 56.088 44.0016 55.672C44.0016 55.2453 44.151 54.8933 44.4496 54.616C44.759 54.328 45.1536 54.184 45.6336 54.184C46.103 54.184 46.487 54.328 46.7856 54.616C47.095 54.8933 47.2496 55.2453 47.2496 55.672C47.2496 56.088 47.095 56.44 46.7856 56.728C46.487 57.0053 46.103 57.144 45.6336 57.144ZM46.9936 58.072V67H44.2576V58.072H46.9936Z" fill="#B99B6C"/>
<path d="M9.917 76.24C10.5677 76.3787 11.0903 76.704 11.485 77.216C11.8797 77.7173 12.077 78.2933 12.077 78.944C12.077 79.8827 11.7463 80.6293 11.085 81.184C10.4343 81.728 9.52233 82 8.349 82H3.117V70.768H8.173C9.31433 70.768 10.205 71.0293 10.845 71.552C11.4957 72.0747 11.821 72.784 11.821 73.68C11.821 74.3413 11.645 74.8907 11.293 75.328C10.9517 75.7653 10.493 76.0693 9.917 76.24ZM5.853 75.312H7.645C8.093 75.312 8.43433 75.216 8.669 75.024C8.91433 74.8213 9.037 74.528 9.037 74.144C9.037 73.76 8.91433 73.4667 8.669 73.264C8.43433 73.0613 8.093 72.96 7.645 72.96H5.853V75.312ZM7.869 79.792C8.32767 79.792 8.67967 79.6907 8.925 79.488C9.181 79.2747 9.309 78.9707 9.309 78.576C9.309 78.1813 9.17567 77.872 8.909 77.648C8.653 77.424 8.29567 77.312 7.837 77.312H5.853V79.792H7.869ZM13.1199 77.52C13.1199 76.6027 13.2905 75.7973 13.6319 75.104C13.9839 74.4107 14.4585 73.8773 15.0559 73.504C15.6532 73.1307 16.3199 72.944 17.0559 72.944C17.6852 72.944 18.2345 73.072 18.7039 73.328C19.1839 73.584 19.5519 73.92 19.8079 74.336V73.072H22.5439V82H19.8079V80.736C19.5412 81.152 19.1679 81.488 18.6879 81.744C18.2185 82 17.6692 82.128 17.0399 82.128C16.3145 82.128 15.6532 81.9413 15.0559 81.568C14.4585 81.184 13.9839 80.6453 13.6319 79.952C13.2905 79.248 13.1199 78.4373 13.1199 77.52ZM19.8079 77.536C19.8079 76.8533 19.6159 76.3147 19.2319 75.92C18.8585 75.5253 18.3999 75.328 17.8559 75.328C17.3119 75.328 16.8479 75.5253 16.4639 75.92C16.0905 76.304 15.9039 76.8373 15.9039 77.52C15.9039 78.2027 16.0905 78.7467 16.4639 79.152C16.8479 79.5467 17.3119 79.744 17.8559 79.744C18.3999 79.744 18.8585 79.5467 19.2319 79.152C19.6159 78.7573 19.8079 78.2187 19.8079 77.536ZM27.2593 74.56C27.5793 74.0693 27.9793 73.6853 28.4593 73.408C28.9393 73.12 29.4726 72.976 30.0593 72.976V75.872H29.3073C28.6246 75.872 28.1126 76.0213 27.7713 76.32C27.4299 76.608 27.2593 77.12 27.2593 77.856V82H24.5233V73.072H27.2593V74.56ZM30.823 77.52C30.823 76.6027 30.9937 75.7973 31.335 75.104C31.687 74.4107 32.1617 73.8773 32.759 73.504C33.3563 73.1307 34.023 72.944 34.759 72.944C35.3883 72.944 35.9377 73.072 36.407 73.328C36.887 73.584 37.255 73.92 37.511 74.336V73.072H40.247V82H37.511V80.736C37.2443 81.152 36.871 81.488 36.391 81.744C35.9217 82 35.3723 82.128 34.743 82.128C34.0177 82.128 33.3563 81.9413 32.759 81.568C32.1617 81.184 31.687 80.6453 31.335 79.952C30.9937 79.248 30.823 78.4373 30.823 77.52ZM37.511 77.536C37.511 76.8533 37.319 76.3147 36.935 75.92C36.5617 75.5253 36.103 75.328 35.559 75.328C35.015 75.328 34.551 75.5253 34.167 75.92C33.7937 76.304 33.607 76.8373 33.607 77.52C33.607 78.2027 33.7937 78.7467 34.167 79.152C34.551 79.5467 35.015 79.744 35.559 79.744C36.103 79.744 36.5617 79.5467 36.935 79.152C37.319 78.7573 37.511 78.2187 37.511 77.536ZM47.6664 72.976C48.7117 72.976 49.5437 73.3173 50.1624 74C50.7917 74.672 51.1064 75.6 51.1064 76.784V82H48.3864V77.152C48.3864 76.5547 48.2317 76.0907 47.9224 75.76C47.613 75.4293 47.197 75.264 46.6744 75.264C46.1517 75.264 45.7357 75.4293 45.4264 75.76C45.117 76.0907 44.9624 76.5547 44.9624 77.152V82H42.2264V73.072H44.9624V74.256C45.2397 73.8613 45.613 73.552 46.0824 73.328C46.5517 73.0933 47.0797 72.976 47.6664 72.976ZM56.3996 72.944C57.029 72.944 57.5783 73.072 58.0476 73.328C58.5276 73.584 58.8956 73.92 59.1516 74.336V73.072H61.8876V81.984C61.8876 82.8053 61.7223 83.5467 61.3916 84.208C61.0716 84.88 60.5756 85.4133 59.9036 85.808C59.2423 86.2027 58.4156 86.4 57.4236 86.4C56.101 86.4 55.029 86.0853 54.2076 85.456C53.3863 84.8373 52.917 83.9947 52.7996 82.928H55.5036C55.589 83.2693 55.7916 83.536 56.1116 83.728C56.4316 83.9307 56.8263 84.032 57.2956 84.032C57.861 84.032 58.309 83.8667 58.6396 83.536C58.981 83.216 59.1516 82.6987 59.1516 81.984V80.72C58.885 81.136 58.517 81.4773 58.0476 81.744C57.5783 82 57.029 82.128 56.3996 82.128C55.6636 82.128 54.997 81.9413 54.3996 81.568C53.8023 81.184 53.3276 80.6453 52.9756 79.952C52.6343 79.248 52.4636 78.4373 52.4636 77.52C52.4636 76.6027 52.6343 75.7973 52.9756 75.104C53.3276 74.4107 53.8023 73.8773 54.3996 73.504C54.997 73.1307 55.6636 72.944 56.3996 72.944ZM59.1516 77.536C59.1516 76.8533 58.9596 76.3147 58.5756 75.92C58.2023 75.5253 57.7436 75.328 57.1996 75.328C56.6556 75.328 56.1916 75.5253 55.8076 75.92C55.4343 76.304 55.2476 76.8373 55.2476 77.52C55.2476 78.2027 55.4343 78.7467 55.8076 79.152C56.1916 79.5467 56.6556 79.744 57.1996 79.744C57.7436 79.744 58.2023 79.5467 58.5756 79.152C58.9596 78.7573 59.1516 78.2187 59.1516 77.536Z" fill="#B99B6C"/>
<path d="M32 36.7939V38.3061L19.8095 42.0869L9.14286 39.2135V41.3307H0V24.6956H12.1905L21.6381 28.1738C23.1619 28.7787 24.381 30.4422 24.381 32.257H27.4286C30.019 32.257 32 34.223 32 36.7939ZM6.09524 38.3061V27.7201H3.04762V38.3061H6.09524ZM28.8 36.1889C28.4952 35.584 28.0381 35.2816 27.4286 35.2816H19.2C18.4381 35.2816 17.5238 35.1303 16.7619 34.9791L13.2571 33.7693L14.1714 30.8959L17.8286 32.1058C18.2857 32.1058 21.3333 32.257 21.3333 32.257C21.3333 31.6521 21.0286 31.1984 20.419 31.0472L11.581 27.7201H9.14286V36.0377L19.8095 38.9111L28.8 36.1889Z" fill="#B99B6C"/>
<path d="M32 36.7939V38.3061L44.1905 42.0869L54.8571 39.2135V41.3307H64V24.6956H51.8095L42.3619 28.1738C40.8381 28.7787 39.619 30.4422 39.619 32.257H36.5714C33.981 32.257 32 34.223 32 36.7939ZM57.9048 38.3061V27.7201H60.9524V38.3061H57.9048ZM35.2 36.1889C35.5048 35.584 35.9619 35.2816 36.5714 35.2816H44.8C45.5619 35.2816 46.4762 35.1303 47.2381 34.9791L50.7429 33.7693L49.8286 30.8959L46.1714 32.1058C45.7143 32.1058 42.6667 32.257 42.6667 32.257C42.6667 31.6521 42.9714 31.1984 43.581 31.0472L52.419 27.7201H54.8571V36.0377L44.1905 38.9111L35.2 36.1889Z" fill="#B99B6C"/>
<path d="M32 0L17.0623 6.77117L23.8394 9.84295L38.1019 2.76378L32 0ZM39.8559 3.55863L25.5934 10.6378L32 13.544L46.9377 6.77117L39.8559 3.55863ZM16 7.92206V22.9912L31.2589 29.913V14.8439L16 7.92206ZM48 7.92206L32.7411 14.8439V29.913L48 22.9912V7.92206Z" fill="#B99B6C"/>
</svg>
