<svg width="55" height="307" viewBox="0 0 55 307" fill="none" xmlns="http://www.w3.org/2000/svg">
<line x1="2.5" y1="-1.09278e-07" x2="2.50001" y2="307" stroke="#A3A3A3" stroke-width="5"/>
<path d="M17.736 213.55C17.736 211.944 18.011 210.514 18.561 209.26C19.111 208.006 19.859 207.016 20.805 206.29C21.773 205.564 22.851 205.157 24.039 205.069L24.039 210.646C23.401 210.712 22.884 211.009 22.488 211.537C22.092 212.065 21.894 212.714 21.894 213.484C21.894 214.188 22.026 214.727 22.29 215.101C22.576 215.497 22.939 215.695 23.379 215.695C23.907 215.695 24.292 215.42 24.534 214.87C24.798 214.32 25.084 213.429 25.392 212.197C25.7 210.877 26.019 209.777 26.349 208.897C26.701 208.017 27.24 207.258 27.966 206.62C28.714 205.982 29.715 205.663 30.969 205.663C32.025 205.663 32.982 205.949 33.84 206.521C34.72 207.115 35.413 207.973 35.919 209.095C36.425 210.239 36.678 211.592 36.678 213.154C36.678 215.464 36.106 217.279 34.962 218.599C33.818 219.941 32.3 220.711 30.408 220.909L30.408 215.695C31.046 215.607 31.552 215.321 31.926 214.837C32.3 214.375 32.487 213.759 32.487 212.989C32.487 212.329 32.355 211.823 32.091 211.471C31.849 211.119 31.508 210.943 31.068 210.943C30.54 210.943 30.144 211.218 29.88 211.768C29.616 212.34 29.352 213.22 29.088 214.408C28.736 215.772 28.384 216.883 28.032 217.741C27.702 218.599 27.152 219.347 26.382 219.985C25.634 220.645 24.622 220.986 23.346 221.008C22.268 221.008 21.3 220.7 20.442 220.084C19.606 219.49 18.946 218.621 18.462 217.477C17.978 216.355 17.736 215.046 17.736 213.55ZM27.207 223.339C29.121 223.339 30.793 223.724 32.223 224.494C33.653 225.286 34.753 226.375 35.523 227.761C36.293 229.169 36.678 230.775 36.678 232.579C36.678 234.889 36.073 236.814 34.863 238.354C33.653 239.916 31.948 240.939 29.748 241.423L29.748 235.417C31.156 234.911 31.86 233.932 31.86 232.48C31.86 231.446 31.453 230.621 30.639 230.005C29.847 229.389 28.703 229.081 27.207 229.081C25.711 229.081 24.556 229.389 23.742 230.005C22.95 230.621 22.554 231.446 22.554 232.48C22.554 233.932 23.258 234.911 24.666 235.417L24.666 241.423C22.51 240.939 20.816 239.916 19.584 238.354C18.352 236.792 17.736 234.867 17.736 232.579C17.736 230.775 18.121 229.169 18.891 227.761C19.661 226.375 20.761 225.286 22.191 224.494C23.621 223.724 25.293 223.339 27.207 223.339ZM33.345 250.084C34.357 250.744 35.149 251.569 35.721 252.559C36.315 253.549 36.612 254.649 36.612 255.859L30.639 255.859L30.639 254.308C30.639 252.9 30.331 251.844 29.715 251.14C29.121 250.436 28.065 250.084 26.547 250.084L18 250.084L18 244.441L36.414 244.441L36.414 250.084L33.345 250.084ZM17.736 266.938C17.736 265.134 18.121 263.506 18.891 262.054C19.661 260.624 20.761 259.491 22.191 258.655C23.621 257.841 25.293 257.434 27.207 257.434C29.099 257.434 30.76 257.852 32.19 258.688C33.642 259.524 34.753 260.668 35.523 262.12C36.293 263.572 36.678 265.2 36.678 267.004C36.678 268.808 36.293 270.436 35.523 271.888C34.753 273.34 33.642 274.484 32.19 275.32C30.76 276.156 29.099 276.574 27.207 276.574C25.315 276.574 23.643 276.145 22.191 275.287C20.761 274.451 19.661 273.296 18.891 271.822C18.121 270.37 17.736 268.742 17.736 266.938ZM22.62 266.938C22.62 268.016 23.016 268.929 23.808 269.677C24.6 270.447 25.733 270.832 27.207 270.832C28.681 270.832 29.814 270.458 30.606 269.71C31.398 268.984 31.794 268.082 31.794 267.004C31.794 265.904 31.398 264.991 30.606 264.265C29.836 263.539 28.703 263.176 27.207 263.176C25.733 263.176 24.6 263.528 23.808 264.232C23.016 264.958 22.62 265.86 22.62 266.938ZM42.42 285.211L18 285.211L18 279.568L42.42 279.568L42.42 285.211ZM42.42 294.943L18 294.943L18 289.3L42.42 289.3L42.42 294.943Z" fill="#A3A3A3"/>
</svg>
