<?xml version="1.0" encoding="utf-8"?><svg version="1.1" id="Layer_1" xmlns="http://www.w3.org/2000/svg" xmlns:xlink="http://www.w3.org/1999/xlink" x="0px" y="0px" viewBox="0 0 122.88 119.81" style="enable-background:new 0 0 122.88 119.81" xml:space="preserve"><style type="text/css"><![CDATA[
	.st0{fill:#31A8FF;}
	.st1{fill:#001E36;}
]]></style><g><path class="st1" d="M21.76,0h79.36c12.03,0,21.76,9.73,21.76,21.76v76.3c0,12.03-9.73,21.76-21.76,21.76H21.76 C9.73,119.81,0,110.08,0,98.05v-76.3C0,9.73,9.73,0,21.76,0L21.76,0z"/><path class="st0" d="M64.51,84.68H32.06c-0.58,0-0.81-0.29-0.81-0.91V31.44c-0.05-0.33,0.19-0.67,0.58-0.72c0.05,0,0.1,0,0.19,0 h10.02c0.24-0.05,0.58,0.14,0.58,0.43c0,0.05,0,0.1,0,0.14v42.99h23.67c0.53,0,0.67,0.24,0.58,0.72l-1.49,8.91 c0,0.24-0.14,0.48-0.29,0.62C64.89,84.64,64.7,84.68,64.51,84.68L64.51,84.68z"/><path class="st0" d="M72.7,43.71h8.96c0.53,0,0.91,0.34,1.05,0.81c0.19,0.34,0.34,0.77,0.43,1.2c0.1,0.53,0.19,1.05,0.24,1.58 c0.05,0.58,0.1,1.2,0.1,1.82c1.53-1.77,3.4-3.26,5.46-4.41c2.35-1.29,4.98-1.92,7.62-1.82c0.34-0.05,0.67,0.19,0.72,0.57 c0,0.05,0,0.1,0,0.19v10.02c0,0.43-0.24,0.58-0.81,0.58c-3.31-0.19-6.66,0.43-9.68,1.73c-1.01,0.48-2.01,1.05-2.78,1.92v26.12 c0,0.53-0.19,0.72-0.67,0.72h-9.97c-0.43,0.05-0.77-0.19-0.81-0.62c0-0.05,0-0.14,0-0.19V55.54c0-1.25,0-2.49-0.05-3.83 c-0.05-1.34-0.05-2.68-0.1-3.98c-0.05-1.15-0.14-2.25-0.29-3.4c-0.05-0.24,0.1-0.53,0.34-0.58C72.56,43.66,72.61,43.66,72.7,43.71 L72.7,43.71L72.7,43.71z"/></g></svg>